
<svg width="33" height="32" viewBox="0 0 33 32" fill="none" xmlns="http://www.w3.org/2000/svg">
<g opacity="0.4">
<rect x="1" y="0.5" width="31" height="31" rx="3.5" stroke="white"/>
<g clip-path="url(#clip0_12070_14060)">
<path d="M23.25 15.125V12.875H22.125V15.125H19.875V16.25H22.125V18.5H23.25V16.25H25.5V15.125H23.25Z" fill="white"/>
<path d="M13 15.4V17.6H16.1119C15.6576 18.8804 14.4344 19.8 13 19.8C11.1806 19.8 9.7 18.3194 9.7 16.5C9.7 14.6806 11.1806 13.2 13 13.2C13.7887 13.2 14.5477 13.4827 15.1373 13.9964L16.5827 12.3376C15.5927 11.4752 14.3211 11 13 11C9.9673 11 7.5 13.4673 7.5 16.5C7.5 19.5327 9.9673 22 13 22C16.0327 22 18.5 19.5327 18.5 16.5V15.4H13Z" fill="white"/>
</g>
</g>
<defs>
<clipPath id="clip0_12070_14060">
<rect width="18" height="18" fill="white" transform="translate(7.5 7)"/>
</clipPath>
</defs>
</svg>


