
<svg width="33" height="32" viewBox="0 0 33 32" fill="none" xmlns="http://www.w3.org/2000/svg">
<g opacity="0.4">
<rect x="1" y="0.5" width="31" height="31" rx="3.5" stroke="white"/>
<g clip-path="url(#clip0_12070_14068)">
<path d="M20.7945 10.9038C20.3526 10.9038 19.9945 11.262 19.9945 11.7038C19.9945 12.1457 20.3526 12.5038 20.7945 12.5038H20.802C21.2438 12.5038 21.602 12.1457 21.602 11.7038C21.602 11.262 21.2438 10.9038 20.802 10.9038H20.7945Z" fill="white"/>
<path fill-rule="evenodd" clip-rule="evenodd" d="M17.1076 12.0842C16.2911 11.9631 15.4571 12.1026 14.7244 12.4828C13.9917 12.863 13.3975 13.4645 13.0264 14.2019C12.6553 14.9392 12.5261 15.7748 12.6572 16.5898C12.7884 17.4048 13.1732 18.1577 13.7569 18.7414C14.3406 19.3251 15.0935 19.7099 15.9085 19.8411C16.7235 19.9722 17.5591 19.843 18.2964 19.4719C19.0338 19.1008 19.6353 18.5066 20.0155 17.7739C20.3957 17.0412 20.5352 16.2072 20.4141 15.3907C20.2906 14.5577 19.9025 13.7866 19.3071 13.1912C18.7117 12.5958 17.9406 12.2077 17.1076 12.0842ZM15.4613 13.903C15.8953 13.6778 16.3893 13.5952 16.8729 13.6669C17.3663 13.7401 17.823 13.9699 18.1757 14.3226C18.5284 14.6753 18.7582 15.132 18.8314 15.6254C18.9031 16.109 18.8205 16.603 18.5953 17.037C18.3701 17.471 18.0138 17.8229 17.5771 18.0427C17.1403 18.2626 16.6454 18.3391 16.1627 18.2614C15.6799 18.1837 15.234 17.9558 14.8882 17.6101C14.5425 17.2643 14.3146 16.8184 14.2369 16.3356C14.1592 15.8529 14.2357 15.358 14.4556 14.9212C14.6754 14.4845 15.0273 14.1282 15.4613 13.903Z" fill="white"/>
<path fill-rule="evenodd" clip-rule="evenodd" d="M7.88672 12.0944C7.88672 9.4955 9.99354 7.38867 12.5924 7.38867H20.4039C23.0028 7.38867 25.1096 9.4955 25.1096 12.0944V19.9058C25.1096 20.8549 24.8286 21.7384 24.3454 22.4776C24.3274 22.6237 24.2355 22.7468 24.1081 22.8084C23.2466 23.9062 21.9076 24.6116 20.4039 24.6116H12.5924C9.99354 24.6116 7.88672 22.5047 7.88672 19.9058V12.0944ZM12.5924 8.98867C10.8772 8.98867 9.48672 10.3792 9.48672 12.0944V19.9058C9.48672 21.6211 10.8772 23.0116 12.5924 23.0116H20.4039C22.1191 23.0116 23.5096 21.6211 23.5096 19.9058V12.0944C23.5096 10.3792 22.1191 8.98867 20.4039 8.98867H12.5924Z" fill="white"/>
</g>
</g>
<defs>
<clipPath id="clip0_12070_14068">
<rect width="18" height="18" fill="white" transform="translate(7.5 7)"/>
</clipPath>
</defs>
</svg>



