

<svg width="33" height="32" viewBox="0 0 33 32" fill="none" xmlns="http://www.w3.org/2000/svg">
<g opacity="0.4">
<rect x="1" y="0.5" width="31" height="31" rx="3.5" stroke="white"/>
<g clip-path="url(#clip0_12070_14050)">
<path fill-rule="evenodd" clip-rule="evenodd" d="M24.5494 10.2062C24.8281 10.4958 25.026 10.8544 25.1232 11.2458C25.3827 12.6962 25.5087 14.1677 25.4995 15.6415C25.5047 17.0933 25.3787 18.5425 25.1232 19.9712C25.026 20.3626 24.8281 20.7212 24.5494 21.0108C24.2707 21.3004 23.9211 21.5108 23.536 21.6206C22.1288 22 16.5 22 16.5 22C16.5 22 10.8712 22 9.464 21.6206C9.08669 21.5166 8.74239 21.3162 8.46435 21.0388C8.18632 20.7614 7.98395 20.4164 7.87681 20.0372C7.61727 18.5868 7.49129 17.1153 7.50047 15.6415C7.4933 14.1787 7.61927 12.7184 7.87681 11.2788C7.974 10.8874 8.17193 10.5288 8.45061 10.2392C8.72929 9.94955 9.07886 9.7392 9.464 9.62937C10.8712 9.25 16.5 9.25 16.5 9.25C16.5 9.25 22.1288 9.25 23.536 9.59638C23.9211 9.70622 24.2707 9.91656 24.5494 10.2062ZM19.1103 15.6559L14.7978 18.1084V13.2034L19.1103 15.6559Z" fill="white"/>
</g>
</g>
<defs>
<clipPath id="clip0_12070_14050">
<rect width="18" height="18" fill="white" transform="translate(7.5 7)"/>
</clipPath>
</defs>
</svg>

