<svg width="33" height="32" viewBox="0 0 33 32" fill="none" xmlns="http://www.w3.org/2000/svg">
<g opacity="0.4">
<rect x="1" y="0.5" width="31" height="31" rx="3.5" stroke="white"/>
<g clip-path="url(#clip0_12070_14055)">
<path d="M25.5 8.50841C24.7165 9.07307 23.849 9.50495 22.9309 9.78741C22.4382 9.20852 21.7833 8.79822 21.0548 8.612C20.3264 8.42578 19.5596 8.47262 18.8581 8.74619C18.1565 9.01977 17.5542 9.50686 17.1324 10.1416C16.7107 10.7764 16.4899 11.5281 16.5 12.2953V13.1312C15.0622 13.1693 13.6374 12.8435 12.3526 12.1828C11.0679 11.5221 9.96299 10.547 9.13636 9.34435C9.13636 9.34435 5.86364 16.8679 13.2273 20.2117C11.5422 21.3803 9.53495 21.9663 7.5 21.8836C14.8636 26.0633 23.8636 21.8836 23.8636 12.2702C23.8629 12.0373 23.841 11.805 23.7982 11.5763C24.6332 10.735 25.2225 9.67264 25.5 8.50841Z" fill="white"/>
</g>
</g>
<defs>
<clipPath id="clip0_12070_14055">
<rect width="18" height="18" fill="white" transform="translate(7.5 7)"/>
</clipPath>
</defs>
</svg>



